<svg width="235" height="100" viewBox="0 0 235 100" fill="none" xmlns="http://www.w3.org/2000/svg">
<g opacity="0.1">
<path d="M132.355 -14.7978L138.246 -38.5578L123.724 -42.1388L117.96 -19.0235C114.163 -19.9724 110.261 -20.8139 106.375 -21.7449L112.176 -45.0215L97.7272 -48.6025L91.8005 -24.8783C88.6487 -25.5945 85.5747 -26.3167 82.5786 -27.0449L62.6506 -32.0225L58.8011 -16.5884C58.8011 -16.5884 69.2933 -14.1891 69.2933 -13.9742C75.1483 -12.506 76.2044 -8.60271 76.026 -5.57677L69.2758 21.4777C69.7884 21.601 70.2911 21.7626 70.7795 21.9612L69.2574 21.5851L59.804 59.4722C59.5991 60.132 59.2658 60.7447 58.8231 61.275C58.3805 61.8054 57.8372 62.243 57.2247 62.5625C56.6123 62.882 55.9426 63.0772 55.2544 63.1369C54.5661 63.1965 53.8729 63.1194 53.2146 62.9099H53.1788C53.3222 63.1248 42.6693 60.2958 42.6693 60.2958L35.5072 76.8401L54.3075 81.5312C57.8885 82.4086 61.2361 83.3217 64.6029 84.1812L58.622 108.192L73.0535 111.773L78.9803 88.0128C82.8122 89.0513 86.6615 90.0361 90.4935 91.003L84.5843 114.656L99.0334 118.237L105.014 94.2617C129.651 98.917 148.201 97.037 155.989 74.7631C162.274 56.8581 155.685 46.4732 142.704 39.7229C152.14 37.5385 159.266 31.3434 161.164 18.5056L161.325 18.434C163.939 0.904884 150.582 -8.51316 132.355 -14.7978ZM128.308 64.7364C123.85 82.6414 93.6269 72.9726 83.8324 70.5555L91.7647 38.7382C101.522 41.1912 132.946 46.0256 128.272 64.7364H128.308ZM132.784 18.1833C128.703 34.5127 103.564 26.2047 95.399 24.1814L102.561 -4.66356C110.708 -2.64029 136.992 1.15559 132.677 18.1833H132.784Z" fill="black"/>
<path d="M101.5 170C75.0962 170 49.2854 162.17 27.3314 147.501C5.37746 132.832 -11.7336 111.982 -21.8379 87.5883C-31.9422 63.1943 -34.5859 36.3519 -29.4348 10.4555C-24.2836 -15.441 -11.569 -39.2284 7.10133 -57.8987C25.7716 -76.569 49.559 -89.2837 75.4555 -94.4348C101.352 -99.5859 128.194 -96.9422 152.588 -86.8379C176.982 -76.7336 197.832 -59.6225 212.501 -37.6686C227.17 -15.7146 235 10.0962 235 36.5C234.96 71.8942 220.882 105.827 195.855 130.855C170.827 155.882 136.894 169.96 101.5 170ZM101.5 -93.4189C75.8045 -93.4189 50.686 -85.7993 29.3209 -71.5236C7.95586 -57.248 -8.69618 -36.9574 -18.5294 -13.2178C-28.3627 10.5218 -30.9355 36.6441 -25.9226 61.846C-20.9096 87.0478 -8.53604 110.197 9.63346 128.367C27.803 146.536 50.9523 158.91 76.1541 163.923C101.356 168.936 127.478 166.363 151.218 156.53C174.957 146.696 195.248 130.044 209.524 108.679C223.799 87.3141 231.419 62.1956 231.419 36.5C231.38 2.05533 217.68 -30.9674 193.324 -55.3235C168.968 -79.6796 135.945 -93.38 101.5 -93.4189ZM97.0212 119.706L79.0952 115.263L85.0052 91.6069C82.326 90.9319 79.632 90.2325 76.9589 89.5174L71.041 113.242L53.1346 108.799L59.119 84.7728C58.42 84.5909 57.7192 84.4079 57.0165 84.2237C54.9152 83.6738 52.7845 83.116 50.5639 82.5713L29.7078 77.3668L38.3212 57.4711L39.8113 57.8671C41.8733 58.4144 44.0507 58.9827 45.8661 59.4452L45.6142 59.0674L50.3764 60.496C50.8136 60.6401 51.2751 60.6958 51.734 60.66C52.193 60.6242 52.6402 60.4976 53.0498 60.2875C53.4594 60.0774 53.8232 59.788 54.12 59.4361C54.4168 59.0843 54.6407 58.6769 54.7788 58.2378L63.7973 22.0824L63.7885 22.0798L70.9296 -6.54031C71.0708 -9.89925 69.307 -11.9923 65.541 -12.9356L61.5216 -13.9436L61.6208 -14.0074C59.7206 -14.4682 57.3343 -15.0277 55.0857 -15.5409L53.3052 -15.9474L58.0297 -34.892L79.6963 -29.4803C82.1276 -28.884 84.6193 -28.2951 87.1713 -27.7134L93.1058 -51.469L111.03 -47.0268L105.234 -23.7687C106.253 -23.5308 107.272 -23.2957 108.291 -23.0631C109.983 -22.6741 111.668 -22.2877 113.337 -21.8855L119.103 -45.0029L137.098 -40.5651L131.168 -16.6459C145.381 -11.5498 162.82 -2.38921 159.779 17.9996L159.634 18.9727L159.462 19.0487C157.686 29.3721 152.448 36.2447 143.859 39.5355C156.398 47.5508 159.83 59.0797 154.362 74.6575C145.726 99.3547 123.778 99.3503 103.027 95.6294L97.0212 119.706ZM83.4395 112.651L94.4124 115.37L100.369 91.4907L102.029 91.8045C130.373 97.1594 144.557 91.8482 150.983 73.4737C156.329 58.2405 152.382 47.7999 138.561 40.6126L134.255 38.3736L138.983 37.2799C148.86 34.9937 154.451 28.5389 156.076 17.545L156.22 16.5711L156.366 16.5064C157.97 2.76289 149.312 -6.61189 128.455 -13.8036L126.906 -14.3369L132.76 -37.9474L121.713 -40.6707L115.946 -17.5498L114.208 -17.9843C111.997 -18.5377 109.749 -19.0535 107.489 -19.572C105.876 -19.9427 104.257 -20.3142 102.641 -20.7015L100.884 -21.1229L106.688 -44.4127L95.7137 -47.1325L89.7953 -23.4416L88.0857 -23.8306C84.9243 -24.5501 81.8351 -25.2679 78.8355 -26.0041L60.6376 -30.5503L57.6633 -18.6252C60.636 -18.0374 63.5757 -17.2929 66.4698 -16.395C71.8754 -15.018 74.7994 -11.2944 74.4961 -6.16946L74.4458 -5.84163L68.1008 19.5891L68.1218 19.5978L67.6956 21.2126L67.6121 21.1916L67.5789 21.2948L67.6782 21.3201L58.2242 59.2075C57.958 60.1041 57.5161 60.9388 56.9242 61.663C56.3323 62.3872 55.6022 62.9864 54.7765 63.4257C53.9508 63.8649 53.0459 64.1356 52.1145 64.2217C51.1832 64.3079 50.244 64.2079 49.3517 63.9276L49.3565 63.911C47.9874 63.7266 45.4494 63.0674 40.3826 61.7236L34.6719 74.9155L51.4237 79.0953C53.6557 79.6426 55.8047 80.2048 57.9234 80.7599C59.1981 81.093 60.4619 81.4244 61.7283 81.7479L63.4532 82.1876L57.4753 106.187L68.4321 108.906L74.368 85.1086L76.1319 85.5859C79.9332 86.6167 83.7943 87.6195 87.6075 88.5663L89.3477 88.9991L83.4395 112.651ZM107.174 76.4235C98.5092 76.4235 89.0085 73.9266 82.8948 72.3206C81.8365 72.0425 80.8919 71.7943 80.0862 71.5949L78.3442 71.1648L87.1438 35.8653L88.884 36.3033C89.8671 36.5507 91.0736 36.8218 92.4418 37.1304C102.405 39.3746 119.08 43.1305 125.062 52.8392C126.811 55.6442 127.533 58.9693 127.105 62.2473H127.247L126.729 64.4705C126.306 66.3553 125.5 68.133 124.36 69.6929C123.221 71.2529 121.773 72.5618 120.106 73.5384C116.534 75.6542 111.982 76.4235 107.174 76.4235ZM82.6832 68.563C83.0412 68.6565 83.4151 68.7545 83.8049 68.8568C92.1642 71.0556 109.559 75.6227 118.28 70.4576C120.535 69.1564 122.213 67.0507 122.979 64.5632L123.219 63.6042C123.65 62.1209 123.766 60.5636 123.558 59.0328C123.351 57.502 122.824 56.0319 122.013 54.7172C116.822 46.2928 100.45 42.6051 91.6545 40.624C90.9813 40.4719 90.3457 40.3285 89.7556 40.193L82.6832 68.563ZM113.686 29.179C106.569 29.179 98.9647 27.155 94.0469 25.8462C93.1425 25.6058 92.3365 25.3907 91.6515 25.2211L89.9125 24.7901L97.9379 -7.53072L99.6755 -7.0997C100.481 -6.89949 101.467 -6.68181 102.585 -6.43526C110.759 -4.63078 124.439 -1.60929 129.624 6.79681C131.267 9.45327 131.936 12.5988 131.515 15.6942H131.654L131.205 17.9193C130.808 19.728 130.042 21.4356 128.957 22.9356C127.871 24.4357 126.488 25.6961 124.893 26.6383C121.447 28.4603 117.58 29.337 113.686 29.179ZM94.2471 22.1944C94.4797 22.2556 94.7199 22.3194 94.9679 22.3858C102.213 24.3127 115.698 27.9025 123.074 23.5539C124.971 22.4551 126.43 20.7366 127.208 18.6877L127.625 17.0449C128.047 15.6546 128.172 14.1911 127.991 12.7495C127.81 11.3078 127.328 9.92035 126.576 8.67729C122.186 1.55987 108.933 -1.36629 101.813 -2.93824C101.373 -3.03529 100.954 -3.12799 100.556 -3.21716L94.2471 22.1944Z" fill="black"/>
</g>
</svg>
