<svg width="61" height="14" viewBox="0 0 61 14" fill="none" xmlns="http://www.w3.org/2000/svg">
<path d="M6.49414 13.1465C4.54102 13.1465 3.09896 12.6387 2.16797 11.623C1.24349 10.6074 0.78125 9.02865 0.78125 6.88672C0.78125 2.76562 2.71484 0.705078 6.58203 0.705078C7.10938 0.705078 7.65625 0.757161 8.22266 0.861328C8.78906 0.965495 9.26107 1.11198 9.63867 1.30078C10.0228 1.48307 10.2148 1.68815 10.2148 1.91602C10.2148 2.07878 10.1497 2.29362 10.0195 2.56055C9.88932 2.82096 9.73307 3.05208 9.55078 3.25391C9.375 3.45573 9.21875 3.55664 9.08203 3.55664C9.04948 3.55664 8.96159 3.52409 8.81836 3.45898C8.50586 3.32878 8.17708 3.22135 7.83203 3.13672C7.49349 3.04557 7.06055 3 6.5332 3C5.51107 3 4.7526 3.32552 4.25781 3.97656C3.76953 4.62109 3.52539 5.59766 3.52539 6.90625C3.52539 8.21484 3.77279 9.20117 4.26758 9.86523C4.76237 10.5293 5.50456 10.8613 6.49414 10.8613C7.00846 10.8613 7.45443 10.8092 7.83203 10.7051C8.21615 10.6009 8.59049 10.4674 8.95508 10.3047C8.97461 10.2982 9.0332 10.2754 9.13086 10.2363C9.22852 10.1908 9.30013 10.168 9.3457 10.168C9.51497 10.168 9.67773 10.2689 9.83398 10.4707C9.99023 10.666 10.1172 10.8906 10.2148 11.1445C10.3125 11.3919 10.3613 11.571 10.3613 11.6816C10.3613 12.0007 10.1465 12.2708 9.7168 12.4922C9.29362 12.7135 8.7793 12.8796 8.17383 12.9902C7.57487 13.0944 7.01497 13.1465 6.49414 13.1465ZM15.7129 13.1465C14.3392 13.1465 13.291 12.7428 12.5684 11.9355C11.8522 11.1283 11.4941 9.96615 11.4941 8.44922C11.4941 6.9388 11.8522 5.7832 12.5684 4.98242C13.291 4.18164 14.3392 3.78125 15.7129 3.78125C17.0866 3.78125 18.1283 4.18164 18.8379 4.98242C19.554 5.77669 19.9121 6.93229 19.9121 8.44922C19.9121 9.96615 19.554 11.1283 18.8379 11.9355C18.1283 12.7428 17.0866 13.1465 15.7129 13.1465ZM15.7129 11.1055C16.2598 11.1055 16.6602 10.8841 16.9141 10.4414C17.1745 9.9987 17.3047 9.33464 17.3047 8.44922C17.3047 7.57031 17.1745 6.90951 16.9141 6.4668C16.6602 6.02409 16.2598 5.80273 15.7129 5.80273C14.6322 5.80273 14.0918 6.6849 14.0918 8.44922C14.0918 9.32812 14.222 9.99219 14.4824 10.4414C14.7493 10.8841 15.1595 11.1055 15.7129 11.1055ZM24.2285 13.1465C23.3561 13.1465 22.7116 12.9186 22.2949 12.4629C21.8783 12.0007 21.6699 11.2878 21.6699 10.3242V4.43555C21.6699 4.25326 21.7546 4.11654 21.9238 4.02539C22.0931 3.93424 22.3568 3.88867 22.7148 3.88867H23.1934C23.5514 3.88867 23.8151 3.93424 23.9844 4.02539C24.1536 4.11654 24.2383 4.25326 24.2383 4.43555V9.93359C24.2383 10.2917 24.3197 10.5618 24.4824 10.7441C24.6452 10.9264 24.9121 11.0176 25.2832 11.0176C25.6022 11.0176 25.8789 10.9167 26.1133 10.7148C26.3542 10.5065 26.5397 10.2721 26.6699 10.0117V4.43555C26.6699 4.25326 26.7546 4.11654 26.9238 4.02539C27.0931 3.93424 27.3568 3.88867 27.7148 3.88867H28.1934C28.5514 3.88867 28.8151 3.93424 28.9844 4.02539C29.1536 4.11654 29.2383 4.25326 29.2383 4.43555V9.93359C29.2383 10.4805 29.2513 10.9102 29.2773 11.2227C29.3099 11.5286 29.349 11.8151 29.3945 12.082C29.4271 12.2578 29.4434 12.3815 29.4434 12.4531C29.4434 12.5833 29.3229 12.6908 29.082 12.7754C28.8411 12.86 28.5645 12.9219 28.252 12.9609C27.946 13 27.6986 13.0195 27.5098 13.0195C27.3014 13.0195 27.1517 12.9382 27.0605 12.7754C26.9759 12.6061 26.9076 12.3685 26.8555 12.0625L26.8066 11.8184C26.5332 12.1895 26.1654 12.5052 25.7031 12.7656C25.2474 13.0195 24.7559 13.1465 24.2285 13.1465ZM32.4316 13.0293C31.7415 13.0293 31.3965 12.847 31.3965 12.4824V6.97461C31.3965 6.14128 31.3411 5.44792 31.2305 4.89453C31.1979 4.71875 31.1816 4.59505 31.1816 4.52344C31.1816 4.39323 31.3021 4.28906 31.543 4.21094C31.7904 4.1263 32.0671 4.06445 32.373 4.02539C32.6855 3.98633 32.9362 3.9668 33.125 3.9668C33.3268 3.9668 33.4668 4.04167 33.5449 4.19141C33.6296 4.34115 33.7044 4.55924 33.7695 4.8457L33.8281 5.09961C34.0495 4.69596 34.3034 4.37695 34.5898 4.14258C34.8828 3.90169 35.2572 3.78125 35.7129 3.78125C36.0905 3.78125 36.3509 3.87891 36.4941 4.07422C36.6374 4.26302 36.709 4.47786 36.709 4.71875C36.709 4.84896 36.6862 5.03451 36.6406 5.27539C36.5951 5.50977 36.5299 5.7181 36.4453 5.90039C36.3607 6.08268 36.2663 6.17383 36.1621 6.17383C36.0905 6.17383 35.9831 6.1543 35.8398 6.11523C35.6445 6.06315 35.4785 6.03711 35.3418 6.03711C35.0228 6.03711 34.7428 6.12826 34.502 6.31055C34.2676 6.48633 34.0885 6.6849 33.9648 6.90625V12.4824C33.9648 12.847 33.6133 13.0293 32.9102 13.0293H32.4316ZM40.0781 13.1465C39.6289 13.1465 39.1829 13.0977 38.7402 13C38.2975 12.9023 37.9297 12.7624 37.6367 12.5801C37.3503 12.3978 37.207 12.1895 37.207 11.9551C37.207 11.8118 37.2591 11.6328 37.3633 11.418C37.4674 11.2031 37.5911 11.0176 37.7344 10.8613C37.8841 10.6986 38.0143 10.6172 38.125 10.6172C38.1836 10.6172 38.3105 10.6628 38.5059 10.7539C38.7337 10.8581 38.9518 10.9427 39.1602 11.0078C39.3685 11.0729 39.6061 11.1055 39.873 11.1055C40.2051 11.1055 40.4557 11.0436 40.625 10.9199C40.7943 10.7962 40.8789 10.6139 40.8789 10.373C40.8789 10.1908 40.8268 10.041 40.7227 9.92383C40.625 9.80013 40.498 9.69922 40.3418 9.62109C40.1855 9.54297 39.9642 9.44857 39.6777 9.33789L39.3945 9.23047C39.0234 9.08724 38.6979 8.92448 38.418 8.74219C38.138 8.5599 37.9004 8.29622 37.7051 7.95117C37.5098 7.59961 37.4121 7.1569 37.4121 6.62305C37.4121 6.0306 37.5391 5.52279 37.793 5.09961C38.0534 4.66992 38.4212 4.3444 38.8965 4.12305C39.3717 3.89518 39.9316 3.78125 40.5762 3.78125C40.9473 3.78125 41.3346 3.81706 41.7383 3.88867C42.1419 3.96029 42.4805 4.07096 42.7539 4.2207C43.0339 4.37044 43.1738 4.55924 43.1738 4.78711C43.1738 4.91732 43.1315 5.0931 43.0469 5.31445C42.9688 5.53581 42.8711 5.73112 42.7539 5.90039C42.6367 6.06966 42.526 6.1543 42.4219 6.1543C42.3893 6.1543 42.2982 6.125 42.1484 6.06641C41.9466 5.98177 41.7513 5.91667 41.5625 5.87109C41.3802 5.81901 41.1686 5.79297 40.9277 5.79297C40.3158 5.79297 40.0098 5.99479 40.0098 6.39844C40.0098 6.58073 40.0651 6.73698 40.1758 6.86719C40.293 6.9974 40.4362 7.10482 40.6055 7.18945C40.7747 7.27409 41.0124 7.375 41.3184 7.49219C41.6699 7.63542 41.888 7.72656 41.9727 7.76562C42.4284 7.99349 42.793 8.29622 43.0664 8.67383C43.3464 9.04492 43.4863 9.54297 43.4863 10.168C43.4863 10.7604 43.3529 11.2812 43.0859 11.7305C42.819 12.1797 42.4284 12.528 41.9141 12.7754C41.3997 13.0228 40.7878 13.1465 40.0781 13.1465ZM49.0918 13.1465C47.5684 13.1465 46.4323 12.7396 45.6836 11.9258C44.9349 11.1055 44.5605 9.9694 44.5605 8.51758C44.5605 6.88346 44.9349 5.68555 45.6836 4.92383C46.4323 4.16211 47.4642 3.78125 48.7793 3.78125C49.6517 3.78125 50.3646 3.97982 50.918 4.37695C51.4779 4.77409 51.8848 5.30794 52.1387 5.97852C52.3991 6.64909 52.5293 7.40755 52.5293 8.25391C52.5293 8.35156 52.4707 8.48177 52.3535 8.64453C52.2428 8.80729 52.1159 8.95378 51.9727 9.08398C51.8294 9.21419 51.7188 9.2793 51.6406 9.2793H47.2168C47.2754 9.94336 47.4707 10.4154 47.8027 10.6953C48.1413 10.9688 48.61 11.1055 49.209 11.1055C49.5345 11.1055 49.8275 11.0697 50.0879 10.998C50.3548 10.9199 50.638 10.819 50.9375 10.6953C51.1198 10.6107 51.2435 10.5684 51.3086 10.5684C51.4258 10.5684 51.5527 10.653 51.6895 10.8223C51.8327 10.985 51.9531 11.1738 52.0508 11.3887C52.1549 11.6035 52.207 11.7695 52.207 11.8867C52.207 12.1536 52.0247 12.3815 51.6602 12.5703C51.3021 12.7591 50.8757 12.9023 50.3809 13C49.8926 13.0977 49.4629 13.1465 49.0918 13.1465ZM50.0293 7.57031C50.0293 7.03646 49.9251 6.61003 49.7168 6.29102C49.5085 5.96549 49.196 5.80273 48.7793 5.80273C47.9199 5.80273 47.3991 6.39193 47.2168 7.57031H50.0293ZM56.6211 13.1465C56.1719 13.1465 55.7259 13.0977 55.2832 13C54.8405 12.9023 54.4727 12.7624 54.1797 12.5801C53.8932 12.3978 53.75 12.1895 53.75 11.9551C53.75 11.8118 53.8021 11.6328 53.9062 11.418C54.0104 11.2031 54.1341 11.0176 54.2773 10.8613C54.4271 10.6986 54.5573 10.6172 54.668 10.6172C54.7266 10.6172 54.8535 10.6628 55.0488 10.7539C55.2767 10.8581 55.4948 10.9427 55.7031 11.0078C55.9115 11.0729 56.1491 11.1055 56.416 11.1055C56.748 11.1055 56.9987 11.0436 57.168 10.9199C57.3372 10.7962 57.4219 10.6139 57.4219 10.373C57.4219 10.1908 57.3698 10.041 57.2656 9.92383C57.168 9.80013 57.041 9.69922 56.8848 9.62109C56.7285 9.54297 56.5072 9.44857 56.2207 9.33789L55.9375 9.23047C55.5664 9.08724 55.2409 8.92448 54.9609 8.74219C54.681 8.5599 54.4434 8.29622 54.248 7.95117C54.0527 7.59961 53.9551 7.1569 53.9551 6.62305C53.9551 6.0306 54.082 5.52279 54.3359 5.09961C54.5964 4.66992 54.9642 4.3444 55.4395 4.12305C55.9147 3.89518 56.4746 3.78125 57.1191 3.78125C57.4902 3.78125 57.8776 3.81706 58.2812 3.88867C58.6849 3.96029 59.0234 4.07096 59.2969 4.2207C59.5768 4.37044 59.7168 4.55924 59.7168 4.78711C59.7168 4.91732 59.6745 5.0931 59.5898 5.31445C59.5117 5.53581 59.4141 5.73112 59.2969 5.90039C59.1797 6.06966 59.069 6.1543 58.9648 6.1543C58.9323 6.1543 58.8411 6.125 58.6914 6.06641C58.4896 5.98177 58.2943 5.91667 58.1055 5.87109C57.9232 5.81901 57.7116 5.79297 57.4707 5.79297C56.8587 5.79297 56.5527 5.99479 56.5527 6.39844C56.5527 6.58073 56.6081 6.73698 56.7188 6.86719C56.8359 6.9974 56.9792 7.10482 57.1484 7.18945C57.3177 7.27409 57.5553 7.375 57.8613 7.49219C58.2129 7.63542 58.431 7.72656 58.5156 7.76562C58.9714 7.99349 59.3359 8.29622 59.6094 8.67383C59.8893 9.04492 60.0293 9.54297 60.0293 10.168C60.0293 10.7604 59.8958 11.2812 59.6289 11.7305C59.362 12.1797 58.9714 12.528 58.457 12.7754C57.9427 13.0228 57.3307 13.1465 56.6211 13.1465Z" fill="white"/>
</svg>

