<svg width="104" height="44" viewBox="0 0 104 44" fill="none" xmlns="http://www.w3.org/2000/svg">
<rect width="104" height="44" rx="5" fill="black"/>
<path d="M30.42 25.38C30.42 26.0067 30.2733 26.5467 29.98 27C29.7 27.44 29.2333 27.8467 28.58 28.22C28.14 28.4867 27.6267 28.6867 27.04 28.82C26.4533 28.9533 25.86 29.02 25.26 29.02C24.6467 29.02 23.8867 28.82 22.98 28.42C22.3267 28.1 21.8067 27.72 21.42 27.28C21.0467 26.84 20.86 26.36 20.86 25.84C20.86 25.48 20.94 25.22 21.1 25.06C21.26 24.8867 21.52 24.8 21.88 24.8C22.0667 24.8 22.26 24.88 22.46 25.04C22.66 25.1867 22.78 25.3333 22.82 25.48C23.0067 26.0267 23.3333 26.4467 23.8 26.74C24.2667 27.02 24.8467 27.16 25.54 27.16C26.34 27.16 27.0067 27.0133 27.54 26.72C28.0867 26.4267 28.36 26.0333 28.36 25.54C28.36 25.06 28.0667 24.6333 27.48 24.26C26.8933 23.8867 26.2933 23.6267 25.68 23.48C24.8 23.24 24.02 22.9533 23.34 22.62C22.6333 22.2733 22.1067 21.8467 21.76 21.34C21.4133 20.8333 21.24 20.3 21.24 19.74C21.24 19.22 21.42 18.6933 21.78 18.16C22.14 17.6133 22.5667 17.22 23.06 16.98C23.3267 16.8467 23.78 16.7067 24.42 16.56C25.0733 16.4 25.5467 16.32 25.84 16.32C26.2267 16.32 26.6533 16.3667 27.12 16.46C27.5867 16.5533 27.9667 16.6867 28.26 16.86C28.8467 17.1933 29.28 17.4933 29.56 17.76C29.84 18.0267 29.98 18.36 29.98 18.76C29.98 19 29.8867 19.2133 29.7 19.4C29.5267 19.5867 29.22 19.68 28.78 19.68C28.6733 19.68 28.5667 19.6333 28.46 19.54C28.3533 19.4467 28.22 19.3067 28.06 19.12C27.8467 18.84 27.64 18.6533 27.44 18.56C27.24 18.4933 26.9467 18.42 26.56 18.34C26.1867 18.26 25.8533 18.22 25.56 18.22C25.24 18.22 24.9067 18.2867 24.56 18.42C24.2133 18.5533 23.92 18.7467 23.68 19C23.4533 19.24 23.34 19.52 23.34 19.84C23.34 20.1067 23.46 20.34 23.7 20.54C23.9533 20.7267 24.2533 20.88 24.6 21C25 21.16 25.4333 21.3 25.9 21.42C26.5133 21.6067 27.0133 21.78 27.4 21.94C27.8 22.0867 28.1867 22.2733 28.56 22.5C29.2133 22.8867 29.6867 23.2867 29.98 23.7C30.2733 24.1 30.42 24.66 30.42 25.38ZM33.3105 16.16C33.7771 16.2 34.1838 16.3267 34.5305 16.54C34.8771 16.74 35.0505 17.0467 35.0505 17.46C35.0505 17.7667 34.9038 18.0133 34.6105 18.2C34.3305 18.3733 33.9905 18.46 33.5905 18.46C33.2038 18.46 32.9371 18.36 32.7905 18.16C32.6438 17.96 32.5705 17.7533 32.5705 17.54C32.5705 17.14 32.6105 16.8067 32.6905 16.54C32.7838 16.2733 32.9905 16.1467 33.3105 16.16ZM34.9105 25.02V25.6C34.9105 26.12 34.9238 26.6133 34.9505 27.08C34.9905 27.5333 35.0371 27.9933 35.0905 28.46C35.0771 28.5933 34.9771 28.7333 34.7905 28.88C34.6038 29.0133 34.4371 29.08 34.2905 29.08C34.0371 29.08 33.7771 29.0333 33.5105 28.94C33.2571 28.8333 33.1038 28.7067 33.0505 28.56C32.9705 28.1333 32.9305 27.7533 32.9305 27.42C32.9305 26.3267 32.8971 25.1 32.8305 23.74C32.7771 22.54 32.7505 21.7 32.7505 21.22C32.7505 20.98 32.8705 20.7733 33.1105 20.6C33.3505 20.4267 33.6038 20.34 33.8705 20.34C34.2571 20.34 34.5238 20.4267 34.6705 20.6C34.8305 20.7733 34.9105 21.0467 34.9105 21.42V25.02ZM44.6277 28.96C44.9877 29.2133 45.2277 29.4933 45.3477 29.8C45.481 30.1067 45.5477 30.5333 45.5477 31.08C45.5477 31.3467 45.4677 31.6133 45.3077 31.88C45.161 32.1467 45.0077 32.34 44.8477 32.46C43.581 33.1533 42.3143 33.5 41.0477 33.5C40.421 33.5 39.881 33.42 39.4277 33.26C38.9743 33.1 38.5477 32.8867 38.1477 32.62C37.881 32.42 37.661 32.14 37.4877 31.78C37.3277 31.4333 37.2477 31.0867 37.2477 30.74C37.2477 30.26 37.3943 29.84 37.6877 29.48C37.9943 29.12 38.401 28.86 38.9077 28.7C38.8143 28.5 38.7677 28.2667 38.7677 28C38.7677 27.7467 38.9543 27.3667 39.3277 26.86C38.6877 26.6467 38.181 26.2667 37.8077 25.72C37.4477 25.1733 37.2677 24.5333 37.2677 23.8C37.2677 23.3467 37.3743 22.9467 37.5877 22.6C37.801 22.24 38.121 21.8267 38.5477 21.36C38.841 21.04 39.2143 20.8067 39.6677 20.66C40.121 20.5133 40.6877 20.44 41.3677 20.44C41.8477 20.44 42.441 20.5467 43.1477 20.76C43.9877 20.1733 44.7277 19.88 45.3677 19.88C45.5277 19.88 45.7077 19.92 45.9077 20C46.121 20.08 46.281 20.16 46.3877 20.24C46.4677 20.3867 46.5077 20.6333 46.5077 20.98C46.5077 21.1133 46.4477 21.2467 46.3277 21.38C46.221 21.5 46.081 21.56 45.9077 21.56L45.4277 21.54C45.1877 21.5133 45.001 21.5 44.8677 21.5C44.721 21.5 44.501 21.5133 44.2077 21.54C44.4877 21.8733 44.701 22.2267 44.8477 22.6C45.0077 22.9733 45.0877 23.46 45.0877 24.06C45.0877 24.5133 44.921 24.9867 44.5877 25.48C44.2543 25.9733 43.861 26.36 43.4077 26.64C42.7143 27.0133 41.9077 27.2067 40.9877 27.22C40.881 27.3267 40.7877 27.4267 40.7077 27.52C40.641 27.6 40.6077 27.6667 40.6077 27.72C40.6077 27.8667 40.7343 27.98 40.9877 28.06C41.241 28.14 41.6277 28.2 42.1477 28.24C42.5477 28.2667 42.9877 28.3533 43.4677 28.5C43.961 28.6333 44.3477 28.7867 44.6277 28.96ZM41.1077 25.58C41.721 25.58 42.2143 25.4133 42.5877 25.08C42.961 24.7467 43.1477 24.2733 43.1477 23.66C43.1477 23.1933 42.981 22.8133 42.6477 22.52C42.3143 22.2267 41.8877 22.08 41.3677 22.08C41.0343 22.08 40.6743 22.14 40.2877 22.26C39.9143 22.3667 39.6477 22.54 39.4877 22.78C39.4077 22.8867 39.3277 23.0933 39.2477 23.4C39.1677 23.6933 39.1277 23.92 39.1277 24.08C39.1277 24.3067 39.221 24.54 39.4077 24.78C39.6077 25.0067 39.861 25.2 40.1677 25.36C40.4877 25.5067 40.801 25.58 41.1077 25.58ZM42.3677 29.92C41.6343 29.8533 41.1143 29.7867 40.8077 29.72C40.5143 29.6667 40.2743 29.6 40.0877 29.52C39.4077 29.88 39.0677 30.2733 39.0677 30.7C39.0677 31.1 39.2743 31.4 39.6877 31.6C40.101 31.8133 40.5743 31.92 41.1077 31.92C41.3477 31.92 41.6743 31.8933 42.0877 31.84C42.501 31.7867 42.8477 31.6933 43.1277 31.56C43.3143 31.4667 43.4543 31.3733 43.5477 31.28C43.641 31.2 43.6877 31.0467 43.6877 30.82C43.6877 30.54 43.541 30.3267 43.2477 30.18C42.9543 30.0333 42.661 29.9467 42.3677 29.92ZM47.5016 21.96C47.3949 21.88 47.3082 21.8 47.2416 21.72C47.1749 21.6267 47.1416 21.4667 47.1416 21.24C47.1416 20.9867 47.2282 20.7933 47.4016 20.66C47.5882 20.5133 47.8016 20.44 48.0416 20.44C48.5082 20.44 48.9082 20.56 49.2416 20.8C49.5882 21.04 49.8416 21.3733 50.0016 21.8C50.2949 21.2533 50.6682 20.88 51.1216 20.68C51.5749 20.4667 52.2016 20.36 53.0016 20.36C53.3216 20.36 53.6482 20.46 53.9816 20.66C54.3282 20.8467 54.6416 21.08 54.9216 21.36C55.1482 21.6533 55.3416 22.02 55.5016 22.46C55.6616 22.8867 55.7416 23.2733 55.7416 23.62C55.7416 23.82 55.7282 24.1467 55.7016 24.6C55.6749 25.08 55.6616 25.46 55.6616 25.74C55.6616 26.6733 55.8416 27.2467 56.2016 27.46C56.2549 27.4867 56.3549 27.52 56.5016 27.56C56.6482 27.6 56.7549 27.64 56.8216 27.68C56.9016 27.72 56.9416 27.78 56.9416 27.86C56.9549 28.18 56.8349 28.4467 56.5816 28.66C56.3416 28.86 56.0482 28.96 55.7016 28.96C55.1816 28.96 54.7749 28.82 54.4816 28.54C54.1882 28.26 53.9816 27.8333 53.8616 27.26C53.7949 27.0467 53.7616 26.7333 53.7616 26.32C53.7616 26.0933 53.7749 25.7267 53.8016 25.22C53.8416 24.82 53.8616 24.3933 53.8616 23.94C53.8616 23.4733 53.7282 23.0667 53.4616 22.72C53.1949 22.36 52.8282 22.18 52.3616 22.18C52.0816 22.18 51.7882 22.2667 51.4816 22.44C51.1749 22.6 50.9616 22.8 50.8416 23.04C50.6416 23.4533 50.5082 23.8733 50.4416 24.3C50.2816 25.1267 50.2016 25.92 50.2016 26.68C50.2016 26.8667 50.2149 27.2267 50.2416 27.76C50.2416 27.8 50.2416 27.9 50.2416 28.06C50.2416 28.2067 50.2216 28.3467 50.1816 28.48C50.1549 28.6133 50.1016 28.7333 50.0216 28.84C49.9682 28.8933 49.8682 28.9467 49.7216 29C49.5749 29.0533 49.4482 29.08 49.3416 29.08C49.1549 29.08 48.9216 29 48.6416 28.84C48.3616 28.68 48.1949 28.5 48.1416 28.3L48.1216 28.02C48.1216 27.9133 48.1349 27.7533 48.1616 27.54C48.3216 26.6067 48.4016 25.7933 48.4016 25.1C48.4016 24.7933 48.3949 24.56 48.3816 24.4L48.3616 23.48C48.3616 23.2 48.2816 22.9333 48.1216 22.68C47.9616 22.4133 47.7549 22.1733 47.5016 21.96ZM63.6778 20.32C64.5578 20.32 64.9978 20.9 64.9978 22.06C64.9978 22.2067 64.9845 22.5333 64.9578 23.04C64.9311 23.6267 64.9178 24.0867 64.9178 24.42C64.9178 25.3533 65.0445 26.1067 65.2978 26.68C65.3911 26.8667 65.5578 27.0133 65.7978 27.12C66.0511 27.2267 66.2645 27.28 66.4378 27.28C66.7045 27.28 66.9245 27.2467 67.0978 27.18C67.2711 27.1133 67.4311 27.0133 67.5778 26.88C67.7378 26.7467 67.8911 26.6 68.0378 26.44C68.2911 26.16 68.4511 25.84 68.5178 25.48C68.5978 25.1067 68.6445 24.6133 68.6578 24C68.6578 23.6133 68.6778 23.24 68.7178 22.88C68.7978 22.2933 68.8378 21.7467 68.8378 21.24C68.8378 20.96 68.9111 20.7267 69.0578 20.54C69.2178 20.34 69.4445 20.24 69.7378 20.24C69.8845 20.24 70.0578 20.2933 70.2578 20.4C70.4711 20.4933 70.6111 20.6 70.6778 20.72C70.7711 20.88 70.8178 21.1 70.8178 21.38C70.8178 21.5533 70.7978 21.7133 70.7578 21.86C70.6911 22.06 70.6578 22.3133 70.6578 22.62C70.6578 22.78 70.6711 23.0467 70.6978 23.42C70.7378 23.7 70.7578 23.9867 70.7578 24.28C70.7578 25.1733 70.8245 25.8333 70.9578 26.26C71.1045 26.7133 71.3045 27.1133 71.5578 27.46C71.8245 27.74 72.0045 27.9467 72.0978 28.08C72.1911 28.2 72.2378 28.3067 72.2378 28.4C72.2378 28.56 72.1578 28.7133 71.9978 28.86C71.8378 29.0067 71.6711 29.08 71.4978 29.08C71.0045 29.08 70.5711 28.9133 70.1978 28.58C69.8378 28.2333 69.5711 27.7933 69.3978 27.26C69.2511 27.4333 69.0578 27.6467 68.8178 27.9C68.5778 28.1533 68.3511 28.36 68.1378 28.52C67.6178 28.8933 66.9511 29.08 66.1378 29.08C65.8045 29.08 65.4378 28.98 65.0378 28.78C64.6511 28.58 64.2978 28.32 63.9778 28C63.6578 27.6667 63.4378 27.3133 63.3178 26.94C63.3045 26.9133 63.2645 26.8067 63.1978 26.62C63.1445 26.4333 63.1178 26.1533 63.1178 25.78L63.0978 22.58C63.0978 22.3933 63.0511 22.1 62.9578 21.7C62.8778 21.4333 62.8378 21.2333 62.8378 21.1C62.8378 20.8733 62.9111 20.6867 63.0578 20.54C63.2178 20.3933 63.4245 20.32 63.6778 20.32ZM74.1958 22.04C74.0758 22.04 73.9624 22.0533 73.8558 22.08C73.7491 22.0933 73.6424 22.1 73.5358 22.1C73.3891 22.1 73.2491 22.0333 73.1158 21.9C72.9958 21.7667 72.9358 21.6467 72.9358 21.54C72.9358 21.1933 73.1091 20.9267 73.4558 20.74C73.8024 20.54 74.1558 20.44 74.5158 20.44C74.8224 20.44 75.1358 20.5467 75.4558 20.76C75.7891 20.96 76.0358 21.22 76.1958 21.54C76.5424 21.1267 76.9691 20.8267 77.4758 20.64C77.9824 20.4533 78.5091 20.36 79.0558 20.36C79.6691 20.36 80.2358 20.5533 80.7558 20.94C81.2891 21.3267 81.7091 21.82 82.0158 22.42C82.3224 23.0067 82.4758 23.5933 82.4758 24.18C82.4758 24.7533 82.4158 25.2667 82.2958 25.72C82.1758 26.16 81.9624 26.6067 81.6558 27.06C81.3091 27.54 80.8424 27.9333 80.2558 28.24C79.6824 28.5467 78.9958 28.7 78.1958 28.7C77.9824 28.7 77.7224 28.6467 77.4158 28.54C77.1091 28.42 76.8558 28.2933 76.6558 28.16C76.5624 29.0667 76.5158 29.8533 76.5158 30.52C76.5158 30.92 76.5358 31.3 76.5758 31.66C76.6024 32.0867 76.6158 32.3933 76.6158 32.58C76.6158 32.8733 76.5158 33.0867 76.3158 33.22C76.1158 33.3667 75.8958 33.44 75.6558 33.44C75.1758 33.44 74.8558 33.3067 74.6958 33.04C74.5491 32.7867 74.4758 32.42 74.4758 31.94C74.5291 30.7933 74.5958 29.7333 74.6758 28.76C74.7558 27.56 74.7958 25.7067 74.7958 23.2C74.7958 22.96 74.7491 22.7067 74.6558 22.44C74.5624 22.1733 74.4091 22.04 74.1958 22.04ZM76.7358 26.18C76.8024 26.4333 76.9891 26.6467 77.2958 26.82C77.6158 26.98 77.9024 27.06 78.1558 27.06C78.9158 27.06 79.4824 26.8533 79.8558 26.44C80.1358 26.1467 80.3158 25.86 80.3958 25.58C80.4891 25.3 80.5358 24.8533 80.5358 24.24C80.5358 23.76 80.4424 23.36 80.2558 23.04C80.0691 22.7067 79.8424 22.4667 79.5758 22.32C79.3091 22.16 79.0558 22.08 78.8158 22.08C78.2691 22.08 77.8224 22.2467 77.4758 22.58C77.1424 22.9 76.9291 23.34 76.8358 23.9C76.7691 24.34 76.7358 25.1 76.7358 26.18Z" fill="white"/>
</svg>
